Exo-Italic.ufo
<glyph name="hyphen" format="1">
  <advance width="338"/>
  <unicode hex="002D"/>
  <note>
    GF Latin Plus glyph
  </note>
  <outline>
    <contour>
      <point x="63" y="257" type="line"/>
      <point x="357" y="257" type="line"/>
      <point x="368" y="323" type="line"/>
      <point x="74" y="323" type="line"/>
    </contour>
  </outline>
</glyph>
<glyph name="zero" format="1">
  <advance width="655"/>
  <unicode hex="0030"/>
  <note>
    GF Latin Plus glyph
  </note>
  <outline>
    <contour>
      <point x="185" y="183" type="curve" smooth="yes"/>
      <point x="244" y="557" type="line" smooth="yes"/>
      <point x="255" y="629"/>
      <point x="306" y="670"/>
      <point x="378" y="670" type="curve" smooth="yes"/>
      <point x="493" y="670" type="line" smooth="yes"/>
      <point x="557" y="670"/>
      <point x="590" y="642"/>
      <point x="590" y="585" type="curve" smooth="yes"/>
      <point x="590" y="577"/>
      <point x="589" y="567"/>
      <point x="588" y="557" type="curve" smooth="yes"/>
      <point x="529" y="183" type="line" smooth="yes"/>
      <point x="517" y="112"/>
      <point x="477" y="69"/>
      <point x="395" y="69" type="curve" smooth="yes"/>
      <point x="285" y="69" type="line" smooth="yes"/>
      <point x="221" y="69"/>
      <point x="182" y="99"/>
      <point x="182" y="157" type="curve" smooth="yes"/>
      <point x="182" y="165"/>
      <point x="183" y="173"/>
    </contour>
    <contour>
      <point x="104" y="173" type="line" smooth="yes"/>
      <point x="102" y="159"/>
      <point x="101" y="145"/>
      <point x="101" y="133" type="curve" smooth="yes"/>
      <point x="101" y="39"/>
      <point x="165" y="-2"/>
      <point x="258" y="-2" type="curve" smooth="yes"/>
      <point x="401" y="-2" type="line" smooth="yes"/>
      <point x="509" y="-2"/>
      <point x="587" y="52"/>
      <point x="606" y="173" type="curve" smooth="yes"/>
      <point x="668" y="563" type="line" smooth="yes"/>
      <point x="670" y="578"/>
      <point x="671" y="592"/>
      <point x="671" y="606" type="curve" smooth="yes"/>
      <point x="671" y="688"/>
      <point x="626" y="742"/>
      <point x="520" y="742" type="curve" smooth="yes"/>
      <point x="376" y="742" type="line" smooth="yes"/>
      <point x="270" y="742"/>
      <point x="184" y="681"/>
      <point x="166" y="563" type="curve" smooth="yes"/>
    </contour>
  </outline>
</glyph>
<glyph name="five" format="1">
  <advance width="630"/>
  <unicode hex="0035"/>
  <note>
    GF Latin Plus glyph
  </note>
  <outline>
    <contour>
      <point x="104" y="6" type="line"/>
      <point x="169" y="-1"/>
      <point x="254" y="-5"/>
      <point x="337" y="-5" type="curve" smooth="yes"/>
      <point x="473" y="-5"/>
      <point x="575" y="53"/>
      <point x="594" y="172" type="curve" smooth="yes"/>
      <point x="612" y="282" type="line" smooth="yes"/>
      <point x="613" y="294"/>
      <point x="614" y="306"/>
      <point x="614" y="318" type="curve" smooth="yes"/>
      <point x="614" y="397"/>
      <point x="562" y="452"/>
      <point x="460" y="452" type="curve" smooth="yes"/>
      <point x="373" y="452" type="line" smooth="yes"/>
      <point x="313" y="452"/>
      <point x="271" y="427"/>
      <point x="252" y="401" type="curve"/>
      <point x="306" y="664" type="line"/>
      <point x="647" y="664" type="line"/>
      <point x="659" y="736" type="line"/>
      <point x="242" y="736" type="line"/>
      <point x="152" y="301" type="line"/>
      <point x="228" y="301" type="line"/>
      <point x="247" y="358"/>
      <point x="286" y="384"/>
      <point x="347" y="384" type="curve" smooth="yes"/>
      <point x="426" y="384" type="line" smooth="yes"/>
      <point x="498" y="384"/>
      <point x="533" y="352"/>
      <point x="533" y="297" type="curve" smooth="yes"/>
      <point x="533" y="289"/>
      <point x="532" y="278"/>
      <point x="530" y="268" type="curve" smooth="yes"/>
      <point x="517" y="188" type="line" smooth="yes"/>
      <point x="506" y="113"/>
      <point x="439" y="67"/>
      <point x="350" y="67" type="curve" smooth="yes"/>
      <point x="115" y="67" type="line"/>
    </contour>
  </outline>
</glyph>
<glyph name="greater" format="1">
  <advance width="609"/>
  <unicode hex="003E"/>
  <note>
    GF Latin Plus glyph
  </note>
  <outline>
    <contour>
      <point x="135" y="177" type="line"/>
      <point x="572" y="313" type="line"/>
      <point x="583" y="385" type="line"/>
      <point x="189" y="519" type="line"/>
      <point x="178" y="450" type="line"/>
      <point x="502" y="350" type="line"/>
      <point x="146" y="246" type="line"/>
    </contour>
  </outline>
</glyph>
<glyph name="Y" format="1">
  <advance width="613"/>
  <unicode hex="0059"/>
  <note>
    GF Latin Plus glyph
  </note>
  <outline>
    <contour>
      <point x="140" y="736" type="line"/>
      <point x="296" y="240" type="line"/>
      <point x="258" y="0" type="line"/>
      <point x="337" y="0" type="line"/>
      <point x="375" y="240" type="line"/>
      <point x="706" y="736" type="line"/>
      <point x="615" y="736" type="line"/>
      <point x="348" y="330" type="line"/>
      <point x="227" y="736" type="line"/>
    </contour>
    <contour>
      <point x="424" y="810" type="move" name="top"/>
    </contour>
    <contour>
      <point x="272" y="-150" type="move" name="bottom"/>
    </contour>
  </outline>
</glyph>
<glyph name="d" format="1">
  <advance width="566"/>
  <unicode hex="0064"/>
  <note>
    GF Latin Plus glyph
  </note>
  <outline>
    <contour>
      <point x="172" y="266" type="curve" smooth="yes"/>
      <point x="199" y="415"/>
      <point x="241" y="474"/>
      <point x="364" y="474" type="curve" smooth="yes"/>
      <point x="417" y="474"/>
      <point x="454" y="464"/>
      <point x="489" y="446" type="curve"/>
      <point x="436" y="108" type="line"/>
      <point x="386" y="82"/>
      <point x="332" y="59"/>
      <point x="269" y="59" type="curve" smooth="yes"/>
      <point x="212" y="59"/>
      <point x="164" y="93"/>
      <point x="164" y="186" type="curve" smooth="yes"/>
      <point x="164" y="210"/>
      <point x="167" y="236"/>
    </contour>
    <contour>
      <point x="96" y="281" type="curve" smooth="yes"/>
      <point x="88" y="244"/>
      <point x="85" y="208"/>
      <point x="85" y="172" type="curve" smooth="yes"/>
      <point x="85" y="55"/>
      <point x="148" y="-6"/>
      <point x="241" y="-6" type="curve" smooth="yes"/>
      <point x="313" y="-6"/>
      <point x="383" y="27"/>
      <point x="428" y="57" type="curve"/>
      <point x="431" y="0" type="line"/>
      <point x="498" y="0" type="line"/>
      <point x="619" y="763" type="line"/>
      <point x="540" y="763" type="line"/>
      <point x="500" y="512" type="line"/>
      <point x="458" y="532"/>
      <point x="414" y="540"/>
      <point x="362" y="540" type="curve" smooth="yes"/>
      <point x="177" y="540"/>
      <point x="126" y="439"/>
    </contour>
    <contour>
      <point x="620" y="650" type="move" name="altcaron"/>
    </contour>
    <contour>
      <point x="593" y="850" type="move" name="top"/>
    </contour>
    <contour>
      <point x="260" y="-150" type="move" name="bottom"/>
    </contour>
  </outline>
</glyph>
<glyph name="h" format="1">
  <advance width="576"/>
  <unicode hex="0068"/>
  <note>
    GF Latin Plus glyph
  </note>
  <outline>
    <contour>
      <point x="68" y="0" type="line"/>
      <point x="148" y="0" type="line"/>
      <point x="213" y="414" type="line"/>
      <point x="274" y="450"/>
      <point x="322" y="470"/>
      <point x="393" y="470" type="curve" smooth="yes"/>
      <point x="451" y="470"/>
      <point x="487" y="447"/>
      <point x="487" y="384" type="curve" smooth="yes"/>
      <point x="487" y="373"/>
      <point x="486" y="361"/>
      <point x="484" y="348" type="curve" smooth="yes"/>
      <point x="429" y="0" type="line"/>
      <point x="508" y="0" type="line"/>
      <point x="565" y="360" type="line" smooth="yes"/>
      <point x="568" y="379"/>
      <point x="569" y="395"/>
      <point x="569" y="411" type="curve" smooth="yes"/>
      <point x="569" y="498"/>
      <point x="523" y="542"/>
      <point x="434" y="542" type="curve" smooth="yes"/>
      <point x="351" y="542"/>
      <point x="277" y="512"/>
      <point x="223" y="475" type="curve"/>
      <point x="269" y="763" type="line"/>
      <point x="189" y="763" type="line"/>
    </contour>
    <contour>
      <point x="329" y="850" type="move" name="top"/>
    </contour>
    <contour>
      <point x="260" y="-150" type="move" name="bottom"/>
    </contour>
  </outline>
</glyph>
<glyph name="n" format="1">
  <advance width="576"/>
  <unicode hex="006E"/>
  <note>
    GF Latin Plus glyph
  </note>
  <outline>
    <contour>
      <point x="68" y="0" type="line"/>
      <point x="148" y="0" type="line"/>
      <point x="213" y="414" type="line"/>
      <point x="274" y="450"/>
      <point x="322" y="470"/>
      <point x="392" y="470" type="curve" smooth="yes"/>
      <point x="463" y="470"/>
      <point x="487" y="434"/>
      <point x="487" y="385" type="curve" smooth="yes"/>
      <point x="487" y="374"/>
      <point x="486" y="362"/>
      <point x="479" y="320" type="curve" smooth="yes"/>
      <point x="429" y="0" type="line"/>
      <point x="508" y="0" type="line"/>
      <point x="559" y="323" type="line" smooth="yes"/>
      <point x="569" y="382"/>
      <point x="569" y="399"/>
      <point x="569" y="416" type="curve" smooth="yes"/>
      <point x="569" y="487"/>
      <point x="530" y="542"/>
      <point x="431" y="542" type="curve" smooth="yes"/>
      <point x="353" y="542"/>
      <point x="279" y="513"/>
      <point x="223" y="475" type="curve"/>
      <point x="216" y="534" type="line"/>
      <point x="153" y="534" type="line"/>
    </contour>
    <contour>
      <point x="387" y="650" type="move" name="top"/>
    </contour>
    <contour>
      <point x="261" y="-150" type="move" name="bottom"/>
    </contour>
  </outline>
</glyph>
<glyph name="t" format="1">
  <advance width="385"/>
  <unicode hex="0074"/>
  <note>
    GF Latin Plus glyph
  </note>
  <outline>
    <contour>
      <point x="103" y="469" type="line"/>
      <point x="188" y="469" type="line"/>
      <point x="143" y="200" type="line" smooth="yes"/>
      <point x="137" y="169"/>
      <point x="133" y="141"/>
      <point x="133" y="114" type="curve" smooth="yes"/>
      <point x="133" y="40"/>
      <point x="178" y="0"/>
      <point x="268" y="0" type="curve" smooth="yes"/>
      <point x="335" y="0" type="line"/>
      <point x="345" y="58" type="line"/>
      <point x="281" y="64" type="line" smooth="yes"/>
      <point x="235" y="68"/>
      <point x="213" y="89"/>
      <point x="213" y="132" type="curve" smooth="yes"/>
      <point x="213" y="153"/>
      <point x="218" y="180"/>
      <point x="221" y="200" type="curve" smooth="yes"/>
      <point x="264" y="469" type="line"/>
      <point x="417" y="469" type="line"/>
      <point x="427" y="534" type="line"/>
      <point x="274" y="534" type="line"/>
      <point x="298" y="683" type="line"/>
      <point x="237" y="683" type="line"/>
      <point x="200" y="534" type="line"/>
      <point x="111" y="520" type="line"/>
    </contour>
    <contour>
      <point x="315" y="664" type="move" name="altcaron"/>
    </contour>
    <contour>
      <point x="278" y="750" type="move" name="top"/>
    </contour>
    <contour>
      <point x="220" y="-150" type="move" name="bottom"/>
    </contour>
  </outline>
</glyph>
<glyph name="paragraph" format="1">
  <advance width="573"/>
  <unicode hex="00B6"/>
  <note>
    GF Latin Plus glyph
  </note>
  <outline>
    <contour>
      <point x="169" y="475" type="curve" smooth="yes"/>
      <point x="185" y="583" type="line" smooth="yes"/>
      <point x="195" y="641"/>
      <point x="237" y="679"/>
      <point x="310" y="679" type="curve" smooth="yes"/>
      <point x="381" y="679" type="line"/>
      <point x="332" y="367" type="line"/>
      <point x="261" y="367" type="line" smooth="yes"/>
      <point x="216" y="367"/>
      <point x="165" y="377"/>
      <point x="165" y="447" type="curve" smooth="yes"/>
      <point x="165" y="454"/>
      <point x="166" y="463"/>
    </contour>
    <contour>
      <point x="111" y="468" type="line" smooth="yes"/>
      <point x="109" y="452"/>
      <point x="108" y="442"/>
      <point x="108" y="433" type="curve" smooth="yes"/>
      <point x="108" y="364"/>
      <point x="150" y="311"/>
      <point x="244" y="311" type="curve" smooth="yes"/>
      <point x="282" y="311"/>
      <point x="314" y="316"/>
      <point x="325" y="323" type="curve"/>
      <point x="231" y="-270" type="line"/>
      <point x="287" y="-270" type="line"/>
      <point x="438" y="679" type="line"/>
      <point x="532" y="679" type="line"/>
      <point x="425" y="0" type="line"/>
      <point x="481" y="0" type="line"/>
      <point x="589" y="677" type="line"/>
      <point x="665" y="677" type="line"/>
      <point x="674" y="736" type="line"/>
      <point x="316" y="736" type="line" smooth="yes"/>
      <point x="230" y="736"/>
      <point x="146" y="691"/>
      <point x="132" y="596" type="curve" smooth="yes"/>
    </contour>
  </outline>
</glyph>
<glyph name="eth" format="1">
  <advance width="566"/>
  <unicode hex="00F0"/>
  <note>
    GF Latin Plus glyph
  </note>
  <outline>
    <contour>
      <point x="93" y="266" type="curve" smooth="yes"/>
      <point x="88" y="235"/>
      <point x="86" y="205"/>
      <point x="86" y="175" type="curve" smooth="yes"/>
      <point x="86" y="44"/>
      <point x="161" y="-6"/>
      <point x="282" y="-6" type="curve" smooth="yes"/>
      <point x="448" y="-6"/>
      <point x="525" y="50"/>
      <point x="555" y="246" type="curve" smooth="yes"/>
      <point x="559" y="272"/>
      <point x="532" y="341"/>
      <point x="532" y="362" type="curve" smooth="yes"/>
      <point x="532" y="470"/>
      <point x="466" y="533"/>
      <point x="352" y="533" type="curve" smooth="yes"/>
      <point x="199" y="533"/>
      <point x="127" y="480"/>
    </contour>
    <contour>
      <point x="171" y="253" type="curve" smooth="yes"/>
      <point x="198" y="430"/>
      <point x="243" y="469"/>
      <point x="356" y="469" type="curve" smooth="yes"/>
      <point x="446" y="469"/>
      <point x="485" y="436"/>
      <point x="485" y="351" type="curve" smooth="yes"/>
      <point x="485" y="325"/>
      <point x="481" y="296"/>
      <point x="476" y="259" type="curve" smooth="yes"/>
      <point x="450" y="92"/>
      <point x="399" y="59"/>
      <point x="292" y="59" type="curve" smooth="yes"/>
      <point x="216" y="59"/>
      <point x="164" y="80"/>
      <point x="164" y="178" type="curve" smooth="yes"/>
      <point x="164" y="199"/>
      <point x="166" y="224"/>
    </contour>
    <contour>
      <point x="235" y="708" type="line"/>
      <point x="406" y="706"/>
      <point x="507" y="640"/>
      <point x="507" y="444" type="curve" smooth="yes"/>
      <point x="507" y="399"/>
      <point x="503" y="348"/>
      <point x="495" y="290" type="curve"/>
      <point x="556" y="256" type="line"/>
      <point x="567" y="327"/>
      <point x="573" y="389"/>
      <point x="573" y="444" type="curve" smooth="yes"/>
      <point x="573" y="671"/>
      <point x="450" y="762"/>
      <point x="244" y="763" type="curve"/>
    </contour>
    <contour>
      <point x="264" y="623" type="line"/>
      <point x="272" y="595" type="line"/>
      <point x="620" y="729" type="line"/>
      <point x="613" y="757" type="line"/>
    </contour>
  </outline>
</glyph>
<glyph name="uhorn" format="1">
  <advance width="588"/>
  <unicode hex="01B0"/>
  <note>
    GF Latin Plus glyph
  </note>
  <outline>
    <contour>
      <point x="516" y="489" type="line"/>
      <point x="550" y="489" type="line" smooth="yes"/>
      <point x="617" y="489"/>
      <point x="681" y="531"/>
      <point x="700" y="647" type="curve"/>
      <point x="642" y="647" type="line"/>
      <point x="628" y="562"/>
      <point x="592" y="534"/>
      <point x="546" y="534" type="curve" smooth="yes"/>
      <point x="523" y="534" type="line"/>
    </contour>
    <component base="u"/>
    <contour>
      <point x="369" y="650" type="move" name="top"/>
    </contour>
    <contour>
      <point x="264" y="-150" type="move" name="bottom"/>
    </contour>
  </outline>
</glyph>
<glyph name="ring" format="1">
  <advance width="332"/>
  <unicode hex="02DA"/>
  <note>
    GF Latin Plus glyph
  </note>
  <outline>
    <contour>
      <point x="290" y="775" type="curve" smooth="yes"/>
      <point x="322" y="775"/>
      <point x="351" y="762"/>
      <point x="351" y="717" type="curve" smooth="yes"/>
      <point x="351" y="669"/>
      <point x="325" y="627"/>
      <point x="266" y="627" type="curve" smooth="yes"/>
      <point x="233" y="627"/>
      <point x="203" y="640"/>
      <point x="203" y="684" type="curve" smooth="yes"/>
      <point x="203" y="732"/>
      <point x="231" y="775"/>
    </contour>
    <contour>
      <point x="164" y="683" type="curve" smooth="yes"/>
      <point x="164" y="616"/>
      <point x="206" y="594"/>
      <point x="263" y="594" type="curve" smooth="yes"/>
      <point x="347" y="594"/>
      <point x="390" y="650"/>
      <point x="390" y="719" type="curve" smooth="yes"/>
      <point x="390" y="784"/>
      <point x="349" y="808"/>
      <point x="294" y="808" type="curve" smooth="yes"/>
      <point x="209" y="808"/>
      <point x="164" y="749"/>
    </contour>
  </outline>
</glyph>
<glyph name="ogonek" format="1">
  <advance width="238"/>
  <unicode hex="02DB"/>
  <note>
    GF Latin Plus glyph
  </note>
  <outline>
    <contour>
      <point x="128" y="0" type="line"/>
      <point x="63" y="-29"/>
      <point x="36" y="-74"/>
      <point x="36" y="-113" type="curve" smooth="yes"/>
      <point x="36" y="-156"/>
      <point x="68" y="-187"/>
      <point x="129" y="-187" type="curve" smooth="yes"/>
      <point x="138" y="-187"/>
      <point x="147" y="-186"/>
      <point x="155" y="-184" type="curve"/>
      <point x="161" y="-146" type="line"/>
      <point x="155" y="-146" type="line" smooth="yes"/>
      <point x="106" y="-146"/>
      <point x="81" y="-126"/>
      <point x="81" y="-92" type="curve" smooth="yes"/>
      <point x="81" y="-67"/>
      <point x="105" y="-27"/>
      <point x="158" y="0" type="curve"/>
    </contour>
  </outline>
</glyph>
<glyph name="pi" format="1">
  <advance width="618"/>
  <unicode hex="03C0"/>
  <outline>
    <contour>
      <point x="95" y="461" type="line"/>
      <point x="194" y="461" type="line"/>
      <point x="122" y="0" type="line"/>
      <point x="201" y="0" type="line"/>
      <point x="274" y="461" type="line"/>
      <point x="435" y="461" type="line"/>
      <point x="383" y="132" type="line" smooth="yes"/>
      <point x="381" y="117"/>
      <point x="380" y="102"/>
      <point x="380" y="90" type="curve" smooth="yes"/>
      <point x="380" y="22"/>
      <point x="414" y="-6"/>
      <point x="477" y="-6" type="curve" smooth="yes"/>
      <point x="513" y="-6"/>
      <point x="541" y="3"/>
      <point x="561" y="12" type="curve"/>
      <point x="568" y="59" type="line"/>
      <point x="513" y="59" type="line" smooth="yes"/>
      <point x="478" y="59"/>
      <point x="460" y="72"/>
      <point x="460" y="109" type="curve" smooth="yes"/>
      <point x="460" y="117"/>
      <point x="461" y="126"/>
      <point x="463" y="136" type="curve" smooth="yes"/>
      <point x="514" y="461" type="line"/>
      <point x="624" y="461" type="line"/>
      <point x="635" y="534" type="line"/>
      <point x="106" y="534" type="line"/>
    </contour>
  </outline>
</glyph>
<glyph name="quoteleft" format="1">
  <advance width="186"/>
  <unicode hex="2018"/>
  <note>
    GF Latin Plus glyph
  </note>
  <outline>
    <contour>
      <point x="139" y="545" type="line" smooth="yes"/>
      <point x="138" y="543"/>
      <point x="138" y="541"/>
      <point x="138" y="539" type="curve" smooth="yes"/>
      <point x="138" y="531"/>
      <point x="141" y="525"/>
      <point x="149" y="525" type="curve" smooth="yes"/>
      <point x="197" y="525" type="line" smooth="yes"/>
      <point x="209" y="525"/>
      <point x="215" y="532"/>
      <point x="218" y="545" type="curve" smooth="yes"/>
      <point x="230" y="624" type="line" smooth="yes"/>
      <point x="230" y="626"/>
      <point x="230" y="627"/>
      <point x="230" y="629" type="curve" smooth="yes"/>
      <point x="230" y="638"/>
      <point x="224" y="643"/>
      <point x="215" y="643" type="curve" smooth="yes"/>
      <point x="207" y="643" type="line"/>
      <point x="215" y="694" type="line" smooth="yes"/>
      <point x="217" y="706"/>
      <point x="223" y="716"/>
      <point x="242" y="716" type="curve"/>
      <point x="246" y="745" type="line"/>
      <point x="240" y="746"/>
      <point x="236" y="746"/>
      <point x="227" y="746" type="curve" smooth="yes"/>
      <point x="204" y="746"/>
      <point x="169" y="738"/>
      <point x="161" y="687" type="curve" smooth="yes"/>
    </contour>
  </outline>
</glyph>
<glyph name="daggerdbl" format="1">
  <advance width="448"/>
  <unicode hex="2021"/>
  <note>
    GF Latin Plus glyph
  </note>
  <outline>
    <contour>
      <point x="49" y="171" type="line"/>
      <point x="198" y="162" type="line"/>
      <point x="169" y="-72" type="line"/>
      <point x="235" y="-72" type="line"/>
      <point x="279" y="162" type="line"/>
      <point x="432" y="171" type="line"/>
      <point x="441" y="229" type="line"/>
      <point x="292" y="238" type="line"/>
      <point x="329" y="475" type="line"/>
      <point x="481" y="483" type="line"/>
      <point x="490" y="541" type="line"/>
      <point x="341" y="549" type="line"/>
      <point x="368" y="770" type="line"/>
      <point x="303" y="770" type="line"/>
      <point x="260" y="549" type="line"/>
      <point x="107" y="541" type="line"/>
      <point x="98" y="483" type="line"/>
      <point x="248" y="475" type="line"/>
      <point x="211" y="238" type="line"/>
      <point x="58" y="229" type="line"/>
    </contour>
  </outline>
</glyph>
<glyph name="fivesuperior" format="1">
  <advance width="419"/>
  <unicode hex="2075"/>
  <outline>
    <contour>
      <point x="118" y="360" type="line"/>
      <point x="166" y="355"/>
      <point x="228" y="352"/>
      <point x="288" y="352" type="curve" smooth="yes"/>
      <point x="384" y="352"/>
      <point x="452" y="389"/>
      <point x="465" y="470" type="curve" smooth="yes"/>
      <point x="476" y="543" type="line" smooth="yes"/>
      <point x="478" y="550"/>
      <point x="479" y="557"/>
      <point x="478" y="564" type="curve" smooth="yes"/>
      <point x="478" y="617"/>
      <point x="444" y="653"/>
      <point x="375" y="653" type="curve" smooth="yes"/>
      <point x="317" y="653" type="line" smooth="yes"/>
      <point x="277" y="653"/>
      <point x="248" y="639"/>
      <point x="234" y="621" type="curve"/>
      <point x="268" y="785" type="line"/>
      <point x="498" y="785" type="line"/>
      <point x="506" y="842" type="line"/>
      <point x="221" y="842" type="line"/>
      <point x="160" y="548" type="line"/>
      <point x="221" y="548" type="line"/>
      <point x="234" y="583"/>
      <point x="258" y="599"/>
      <point x="295" y="599" type="curve" smooth="yes"/>
      <point x="345" y="599" type="line" smooth="yes"/>
      <point x="390" y="599"/>
      <point x="411" y="579"/>
      <point x="411" y="548" type="curve" smooth="yes"/>
      <point x="411" y="543"/>
      <point x="411" y="537"/>
      <point x="409" y="530" type="curve" smooth="yes"/>
      <point x="401" y="478" type="line" smooth="yes"/>
      <point x="394" y="433"/>
      <point x="350" y="409"/>
      <point x="300" y="409" type="curve" smooth="yes"/>
      <point x="126" y="409" type="line"/>
    </contour>
  </outline>
</glyph>
<glyph name="f_f" format="1">
  <advance width="752"/>
  <unicode hex="FB00"/>
  <note>
    GF Latin Plus glyph
  </note>
  <outline>
    <contour>
      <point x="99" y="467" type="line"/>
      <point x="181" y="467" type="line"/>
      <point x="107" y="0" type="line"/>
      <point x="186" y="0" type="line"/>
      <point x="260" y="467" type="line"/>
      <point x="599" y="467" type="line"/>
      <point x="609" y="534" type="line"/>
      <point x="271" y="534" type="line"/>
      <point x="281" y="598" type="line" smooth="yes"/>
      <point x="291" y="665"/>
      <point x="309" y="705"/>
      <point x="379" y="705" type="curve" smooth="yes"/>
      <point x="478" y="705" type="line"/>
      <point x="487" y="762" type="line"/>
      <point x="455" y="766"/>
      <point x="410" y="769"/>
      <point x="369" y="769" type="curve" smooth="yes"/>
      <point x="245" y="769"/>
      <point x="218" y="691"/>
      <point x="205" y="616" type="curve" smooth="yes"/>
      <point x="191" y="534" type="line"/>
      <point x="108" y="518" type="line"/>
    </contour>
    <component base="f" xOffset="373"/>
  </outline>
</glyph>
<glyph name="fl" format="1">
  <advance width="704"/>
  <unicode hex="FB02"/>
  <note>
    GF Latin Plus glyph
  </note>
  <outline>
    <contour>
      <point x="99" y="467" type="line"/>
      <point x="181" y="467" type="line"/>
      <point x="107" y="0" type="line"/>
      <point x="186" y="0" type="line"/>
      <point x="260" y="467" type="line"/>
      <point x="422" y="467" type="line"/>
      <point x="433" y="534" type="line"/>
      <point x="271" y="534" type="line"/>
      <point x="281" y="598" type="line" smooth="yes"/>
      <point x="291" y="666"/>
      <point x="315" y="705"/>
      <point x="406" y="705" type="curve" smooth="yes"/>
      <point x="628" y="705" type="line"/>
      <point x="640" y="753" type="line"/>
      <point x="550" y="765"/>
      <point x="484" y="769"/>
      <point x="403" y="769" type="curve" smooth="yes"/>
      <point x="265" y="769"/>
      <point x="221" y="712"/>
      <point x="205" y="616" type="curve" smooth="yes"/>
      <point x="191" y="534" type="line"/>
      <point x="108" y="518" type="line"/>
    </contour>
    <contour>
      <point x="470" y="182" type="line" smooth="yes"/>
      <point x="467" y="160"/>
      <point x="463" y="134"/>
      <point x="463" y="107" type="curve" smooth="yes"/>
      <point x="463" y="40"/>
      <point x="506" y="0"/>
      <point x="588" y="0" type="curve" smooth="yes"/>
      <point x="647" y="0" type="line"/>
      <point x="657" y="57" type="line"/>
      <point x="605" y="62" type="line" smooth="yes"/>
      <point x="567" y="67"/>
      <point x="544" y="81"/>
      <point x="544" y="127" type="curve" smooth="yes"/>
      <point x="544" y="153"/>
      <point x="550" y="186"/>
      <point x="553" y="205" type="curve" smooth="yes"/>
      <point x="640" y="753" type="line"/>
      <point x="561" y="753" type="line"/>
    </contour>
  </outline>
</glyph>
<glyph name="f_f_l" format="1">
  <advance width="1040"/>
  <unicode hex="FB04"/>
  <outline>
    <contour>
      <point x="99" y="467" type="line"/>
      <point x="181" y="467" type="line"/>
      <point x="107" y="0" type="line"/>
      <point x="186" y="0" type="line"/>
      <point x="260" y="467" type="line"/>
      <point x="599" y="467" type="line"/>
      <point x="609" y="534" type="line"/>
      <point x="271" y="534" type="line"/>
      <point x="281" y="598" type="line" smooth="yes"/>
      <point x="291" y="665"/>
      <point x="309" y="705"/>
      <point x="379" y="705" type="curve" smooth="yes"/>
      <point x="478" y="705" type="line"/>
      <point x="487" y="762" type="line"/>
      <point x="455" y="766"/>
      <point x="410" y="769"/>
      <point x="369" y="769" type="curve" smooth="yes"/>
      <point x="245" y="769"/>
      <point x="218" y="691"/>
      <point x="205" y="616" type="curve" smooth="yes"/>
      <point x="191" y="534" type="line"/>
      <point x="108" y="518" type="line"/>
    </contour>
    <component base="fl" xOffset="373"/>
  </outline>
</glyph>
<glyph name="Q.smcp" format="1">
  <advance width="579"/>
  <note>
    GF Latin Plus glyph
  </note>
  <outline>
    <contour>
      <point x="278" y="-27" type="line"/>
      <point x="282" y="-103"/>
      <point x="336" y="-134"/>
      <point x="408" y="-134" type="curve" smooth="yes"/>
      <point x="426" y="-134"/>
      <point x="443" y="-132"/>
      <point x="458" y="-128" type="curve"/>
      <point x="467" y="-74" type="line"/>
      <point x="449" y="-78"/>
      <point x="428" y="-82"/>
      <point x="408" y="-82" type="curve" smooth="yes"/>
      <point x="364" y="-82"/>
      <point x="339" y="-68"/>
      <point x="331" y="-27" type="curve"/>
    </contour>
    <component base="O.smcp"/>
  </outline>
</glyph>
<glyph name="Uhorn.smcp" format="1">
  <advance width="571"/>
  <outline>
    <contour>
      <point x="522" y="515" type="line"/>
      <point x="557" y="515" type="line" smooth="yes"/>
      <point x="624" y="515"/>
      <point x="687" y="557"/>
      <point x="706" y="673" type="curve"/>
      <point x="648" y="673" type="line"/>
      <point x="635" y="588"/>
      <point x="599" y="560"/>
      <point x="552" y="560" type="curve" smooth="yes"/>
      <point x="529" y="560" type="line"/>
    </contour>
    <component base="U.smcp"/>
    <contour>
      <point x="381" y="650" type="move" name="top"/>
    </contour>
    <contour>
      <point x="255" y="-150" type="move" name="bottom"/>
    </contour>
  </outline>
</glyph>
<glyph name="W.smcp" format="1">
  <advance width="837"/>
  <note>
    GF Latin Plus glyph
  </note>
  <outline>
    <contour>
      <point x="128" y="560" type="line"/>
      <point x="204" y="0" type="line"/>
      <point x="286" y="0" type="line"/>
      <point x="485" y="456" type="line"/>
      <point x="547" y="0" type="line"/>
      <point x="628" y="0" type="line"/>
      <point x="875" y="560" type="line"/>
      <point x="796" y="560" type="line"/>
      <point x="594" y="103" type="line"/>
      <point x="537" y="560" type="line"/>
      <point x="463" y="560" type="line"/>
      <point x="269" y="103" type="line"/>
      <point x="206" y="560" type="line"/>
    </contour>
    <contour>
      <point x="516" y="650" type="move" name="top"/>
    </contour>
  </outline>
</glyph>
<glyph name="X.salt.smcp" format="1">
  <advance width="545"/>
  <outline>
    <contour>
      <point x="39" y="0" type="line"/>
      <point x="121" y="0" type="line"/>
      <point x="264" y="191" type="line" smooth="yes"/>
      <point x="290" y="226"/>
      <point x="305" y="267"/>
      <point x="305" y="307" type="curve" smooth="yes"/>
      <point x="305" y="331"/>
      <point x="297" y="356"/>
      <point x="284" y="386" type="curve" smooth="yes"/>
      <point x="205" y="560" type="line"/>
      <point x="126" y="560" type="line"/>
      <point x="212" y="361" type="line" smooth="yes"/>
      <point x="221" y="341"/>
      <point x="228" y="320"/>
      <point x="228" y="300" type="curve" smooth="yes"/>
      <point x="228" y="267"/>
      <point x="218" y="244"/>
      <point x="193" y="211" type="curve" smooth="yes"/>
    </contour>
    <contour>
      <point x="425" y="0" type="line"/>
      <point x="507" y="0" type="line"/>
      <point x="419" y="209" type="line" smooth="yes"/>
      <point x="411" y="226"/>
      <point x="408" y="242"/>
      <point x="408" y="259" type="curve" smooth="yes"/>
      <point x="408" y="292"/>
      <point x="424" y="325"/>
      <point x="448" y="358" type="curve" smooth="yes"/>
      <point x="596" y="560" type="line"/>
      <point x="517" y="560" type="line"/>
      <point x="382" y="382" type="line" smooth="yes"/>
      <point x="351" y="340"/>
      <point x="331" y="294"/>
      <point x="331" y="249" type="curve" smooth="yes"/>
      <point x="331" y="229"/>
      <point x="335" y="209"/>
      <point x="343" y="190" type="curve" smooth="yes"/>
    </contour>
    <contour>
      <point x="375" y="650" type="move" name="top"/>
    </contour>
    <contour>
      <point x="250" y="-150" type="move" name="bottom"/>
    </contour>
  </outline>
</glyph>
<glyph name="b.superior" format="1">
  <advance width="428"/>
  <note>
    GF Latin Plus glyph
  </note>
  <outline>
    <contour>
      <point x="174" y="363" type="curve"/>
      <point x="210" y="590" type="line"/>
      <point x="251" y="608"/>
      <point x="290" y="620"/>
      <point x="329" y="620" type="curve" smooth="yes"/>
      <point x="371" y="620"/>
      <point x="405" y="597"/>
      <point x="405" y="533" type="curve" smooth="yes"/>
      <point x="405" y="517"/>
      <point x="402" y="497"/>
      <point x="399" y="475" type="curve" smooth="yes"/>
      <point x="385" y="380"/>
      <point x="348" y="332"/>
      <point x="279" y="332" type="curve" smooth="yes"/>
      <point x="233" y="332"/>
      <point x="201" y="349"/>
    </contour>
    <contour>
      <point x="93" y="280" type="line"/>
      <point x="151" y="280" type="line"/>
      <point x="167" y="319" type="line"/>
      <point x="198" y="296"/>
      <point x="248" y="276"/>
      <point x="297" y="276" type="curve" smooth="yes"/>
      <point x="388" y="276"/>
      <point x="446" y="346"/>
      <point x="464" y="457" type="curve" smooth="yes"/>
      <point x="468" y="490"/>
      <point x="472" y="520"/>
      <point x="472" y="543" type="curve" smooth="yes"/>
      <point x="472" y="630"/>
      <point x="422" y="676"/>
      <point x="349" y="676" type="curve" smooth="yes"/>
      <point x="315" y="676"/>
      <point x="260" y="662"/>
      <point x="217" y="639" type="curve"/>
      <point x="249" y="840" type="line"/>
      <point x="183" y="840" type="line"/>
    </contour>
    <contour>
      <point x="242" y="170" type="move" name="bottom"/>
    </contour>
  </outline>
</glyph>
<glyph name="braceright.smcp" format="1">
  <advance width="275"/>
  <note>
    GF Latin Plus glyph
  </note>
  <outline>
    <contour>
      <point x="13" y="-105" type="curve"/>
      <point x="5" y="-160" type="line"/>
      <point x="134" y="-160"/>
      <point x="169" y="-109"/>
      <point x="182" y="-29" type="curve" smooth="yes"/>
      <point x="211" y="155" type="line" smooth="yes"/>
      <point x="217" y="191"/>
      <point x="246" y="205"/>
      <point x="280" y="205" type="curve"/>
      <point x="291" y="272" type="line"/>
      <point x="267" y="274"/>
      <point x="236" y="282"/>
      <point x="236" y="313" type="curve" smooth="yes"/>
      <point x="236" y="332"/>
      <point x="267" y="522"/>
      <point x="267" y="536" type="curve" smooth="yes"/>
      <point x="267" y="598"/>
      <point x="230" y="640"/>
      <point x="131" y="640" type="curve"/>
      <point x="122" y="582" type="line"/>
      <point x="165" y="582"/>
      <point x="189" y="567"/>
      <point x="189" y="521" type="curve" smooth="yes"/>
      <point x="189" y="497"/>
      <point x="158" y="326"/>
      <point x="158" y="296" type="curve" smooth="yes"/>
      <point x="158" y="261"/>
      <point x="183" y="242"/>
      <point x="220" y="239" type="curve"/>
      <point x="172" y="232"/>
      <point x="143" y="206"/>
      <point x="137" y="169" type="curve" smooth="yes"/>
      <point x="107" y="-18" type="line" smooth="yes"/>
      <point x="97" y="-79"/>
      <point x="71" y="-105"/>
    </contour>
  </outline>
</glyph>
<glyph name="bracketleft.smcp" format="1">
  <advance width="293"/>
  <note>
    GF Latin Plus glyph
  </note>
  <outline>
    <contour>
      <point x="80" y="-13" type="line" smooth="yes"/>
      <point x="78" y="-26"/>
      <point x="77" y="-40"/>
      <point x="77" y="-55" type="curve" smooth="yes"/>
      <point x="77" y="-106"/>
      <point x="99" y="-160"/>
      <point x="187" y="-160" type="curve" smooth="yes"/>
      <point x="241" y="-160" type="line"/>
      <point x="249" y="-101" type="line"/>
      <point x="215" y="-101" type="line" smooth="yes"/>
      <point x="174" y="-101"/>
      <point x="155" y="-77"/>
      <point x="154" y="-38" type="curve" smooth="yes"/>
      <point x="154" y="-29"/>
      <point x="156" y="-20"/>
      <point x="156" y="-10" type="curve" smooth="yes"/>
      <point x="236" y="491" type="line" smooth="yes"/>
      <point x="246" y="557"/>
      <point x="280" y="582"/>
      <point x="324" y="582" type="curve" smooth="yes"/>
      <point x="358" y="582" type="line"/>
      <point x="367" y="640" type="line"/>
      <point x="313" y="640" type="line" smooth="yes"/>
      <point x="209" y="640"/>
      <point x="172" y="568"/>
      <point x="161" y="500" type="curve" smooth="yes"/>
    </contour>
  </outline>
</glyph>
<glyph name="c_t" format="1">
  <advance width="825"/>
  <outline>
    <contour>
      <point x="632" y="485" type="line"/>
      <point x="583" y="200" type="line" smooth="yes"/>
      <point x="578" y="169"/>
      <point x="574" y="141"/>
      <point x="574" y="114" type="curve" smooth="yes"/>
      <point x="574" y="40"/>
      <point x="619" y="0"/>
      <point x="709" y="0" type="curve" smooth="yes"/>
      <point x="776" y="0" type="line"/>
      <point x="785" y="58" type="line"/>
      <point x="722" y="64" type="line" smooth="yes"/>
      <point x="675" y="68"/>
      <point x="654" y="89"/>
      <point x="654" y="132" type="curve" smooth="yes"/>
      <point x="654" y="153"/>
      <point x="658" y="180"/>
      <point x="661" y="200" type="curve" smooth="yes"/>
      <point x="704" y="469" type="line"/>
      <point x="858" y="469" type="line"/>
      <point x="868" y="534" type="line"/>
      <point x="714" y="534" type="line"/>
      <point x="738" y="683" type="line"/>
      <point x="677" y="683" type="line"/>
      <point x="640" y="534" type="line"/>
    </contour>
    <contour>
      <point x="95" y="282" type="curve" smooth="yes"/>
      <point x="89" y="245"/>
      <point x="85" y="213"/>
      <point x="85" y="188" type="curve" smooth="yes"/>
      <point x="85" y="34"/>
      <point x="161" y="-6"/>
      <point x="273" y="-6" type="curve" smooth="yes"/>
      <point x="348" y="-6"/>
      <point x="404" y="1"/>
      <point x="447" y="10" type="curve"/>
      <point x="454" y="56" type="line"/>
      <point x="297" y="56" type="line" smooth="yes"/>
      <point x="210" y="56"/>
      <point x="164" y="85"/>
      <point x="164" y="194" type="curve" smooth="yes"/>
      <point x="164" y="211"/>
      <point x="167" y="235"/>
      <point x="172" y="265" type="curve" smooth="yes"/>
      <point x="198" y="426"/>
      <point x="260" y="477"/>
      <point x="356" y="477" type="curve" smooth="yes"/>
      <point x="666" y="477" type="line"/>
      <point x="674" y="536" type="line"/>
      <point x="641" y="538"/>
      <point x="438" y="540"/>
      <point x="349" y="540" type="curve" smooth="yes"/>
      <point x="220" y="540"/>
      <point x="124" y="468"/>
    </contour>
  </outline>
</glyph>
<glyph name="d.salt" format="1">
  <advance width="565"/>
  <outline>
    <contour>
      <point x="172" y="266" type="curve" smooth="yes"/>
      <point x="199" y="415"/>
      <point x="241" y="474"/>
      <point x="364" y="474" type="curve" smooth="yes"/>
      <point x="417" y="474"/>
      <point x="454" y="464"/>
      <point x="489" y="446" type="curve"/>
      <point x="433" y="92" type="line"/>
      <point x="383" y="70"/>
      <point x="332" y="59"/>
      <point x="269" y="59" type="curve" smooth="yes"/>
      <point x="211" y="59"/>
      <point x="164" y="93"/>
      <point x="164" y="186" type="curve" smooth="yes"/>
      <point x="164" y="210"/>
      <point x="167" y="236"/>
    </contour>
    <contour>
      <point x="96" y="281" type="curve" smooth="yes"/>
      <point x="88" y="244"/>
      <point x="85" y="208"/>
      <point x="85" y="172" type="curve" smooth="yes"/>
      <point x="85" y="55"/>
      <point x="148" y="-6"/>
      <point x="265" y="-6" type="curve" smooth="yes"/>
      <point x="335" y="-6"/>
      <point x="421" y="11"/>
      <point x="505" y="43" type="curve"/>
      <point x="619" y="763" type="line"/>
      <point x="540" y="763" type="line"/>
      <point x="500" y="512" type="line"/>
      <point x="458" y="532"/>
      <point x="414" y="540"/>
      <point x="362" y="540" type="curve" smooth="yes"/>
      <point x="175" y="540"/>
      <point x="126" y="439"/>
    </contour>
    <contour>
      <point x="621" y="650" type="move" name="altcaron"/>
    </contour>
    <contour>
      <point x="593" y="850" type="move" name="top"/>
    </contour>
    <contour>
      <point x="253" y="-150" type="move" name="bottom"/>
    </contour>
  </outline>
</glyph>
<glyph name="f.superior" format="1">
  <advance width="281"/>
  <note>
    GF Latin Plus glyph
  </note>
  <outline>
    <contour>
      <point x="115" y="615" type="line"/>
      <point x="175" y="615" type="line"/>
      <point x="122" y="280" type="line"/>
      <point x="189" y="280" type="line"/>
      <point x="242" y="615" type="line"/>
      <point x="360" y="615" type="line"/>
      <point x="369" y="672" type="line"/>
      <point x="251" y="672" type="line"/>
      <point x="258" y="715" type="line" smooth="yes"/>
      <point x="265" y="762"/>
      <point x="278" y="788"/>
      <point x="329" y="788" type="curve" smooth="yes"/>
      <point x="401" y="788" type="line"/>
      <point x="408" y="838" type="line"/>
      <point x="384" y="841"/>
      <point x="351" y="844"/>
      <point x="319" y="844" type="curve" smooth="yes"/>
      <point x="227" y="844"/>
      <point x="204" y="791"/>
      <point x="194" y="731" type="curve" smooth="yes"/>
      <point x="184" y="672" type="line"/>
      <point x="122" y="659" type="line"/>
    </contour>
    <contour>
      <point x="149" y="170" type="move" name="bottom"/>
    </contour>
  </outline>
</glyph>
<glyph name="f_t" format="1">
  <advance width="758"/>
  <outline>
    <contour>
      <point x="99" y="467" type="line"/>
      <point x="181" y="467" type="line"/>
      <point x="107" y="0" type="line"/>
      <point x="186" y="0" type="line"/>
      <point x="260" y="467" type="line"/>
      <point x="600" y="467" type="line"/>
      <point x="611" y="534" type="line"/>
      <point x="271" y="534" type="line"/>
      <point x="281" y="598" type="line" smooth="yes"/>
      <point x="291" y="665"/>
      <point x="309" y="705"/>
      <point x="379" y="705" type="curve" smooth="yes"/>
      <point x="478" y="705" type="line"/>
      <point x="487" y="762" type="line"/>
      <point x="455" y="766"/>
      <point x="410" y="769"/>
      <point x="369" y="769" type="curve" smooth="yes"/>
      <point x="245" y="769"/>
      <point x="218" y="691"/>
      <point x="205" y="616" type="curve" smooth="yes"/>
      <point x="191" y="534" type="line"/>
      <point x="108" y="518" type="line"/>
    </contour>
    <component base="t" xOffset="373"/>
  </outline>
</glyph>
<glyph name="franc.smcp" format="1">
  <advance width="515"/>
  <note>
    GF Latin Plus glyph
  </note>
  <outline>
    <contour>
      <point x="128" y="0" type="line"/>
      <point x="204" y="0" type="line"/>
      <point x="246" y="264" type="line"/>
      <point x="451" y="269" type="line"/>
      <point x="460" y="324" type="line"/>
      <point x="257" y="329" type="line"/>
      <point x="273" y="432" type="line" smooth="yes"/>
      <point x="279" y="472"/>
      <point x="305" y="494"/>
      <point x="347" y="494" type="curve" smooth="yes"/>
      <point x="522" y="494" type="line"/>
      <point x="531" y="552" type="line"/>
      <point x="503" y="556"/>
      <point x="354" y="560"/>
      <point x="338" y="560" type="curve" smooth="yes"/>
      <point x="279" y="561"/>
      <point x="212" y="533"/>
      <point x="199" y="447" type="curve" smooth="yes"/>
    </contour>
    <contour>
      <point x="78" y="105" type="line"/>
      <point x="144" y="101" type="line"/>
      <point x="220" y="101" type="line"/>
      <point x="419" y="105" type="line"/>
      <point x="426" y="154" type="line"/>
      <point x="230" y="159" type="line"/>
      <point x="154" y="159" type="line"/>
      <point x="85" y="154" type="line"/>
    </contour>
  </outline>
</glyph>
<glyph name="micro" format="1">
  <advance width="588"/>
  <note>
    GF Latin Plus glyph
  </note>
  <outline>
    <contour>
      <point x="33" y="-269" type="line"/>
      <point x="112" y="-269" type="line"/>
      <point x="191" y="231" type="line"/>
      <point x="112" y="231" type="line"/>
    </contour>
    <contour>
      <point x="159" y="534" type="line"/>
      <point x="104" y="183" type="line" smooth="yes"/>
      <point x="102" y="168"/>
      <point x="100" y="154"/>
      <point x="100" y="140" type="curve" smooth="yes"/>
      <point x="100" y="49"/>
      <point x="164" y="-6"/>
      <point x="258" y="-6" type="curve" smooth="yes"/>
      <point x="329" y="-6"/>
      <point x="395" y="21"/>
      <point x="448" y="59" type="curve"/>
      <point x="453" y="0" type="line"/>
      <point x="515" y="0" type="line"/>
      <point x="599" y="534" type="line"/>
      <point x="520" y="534" type="line"/>
      <point x="454" y="115" type="line"/>
      <point x="394" y="82"/>
      <point x="346" y="64"/>
      <point x="281" y="64" type="curve" smooth="yes"/>
      <point x="220" y="64"/>
      <point x="180" y="83"/>
      <point x="180" y="147" type="curve" smooth="yes"/>
      <point x="180" y="156"/>
      <point x="181" y="167"/>
      <point x="182" y="178" type="curve" smooth="yes"/>
      <point x="239" y="534" type="line"/>
    </contour>
  </outline>
</glyph>
<glyph name="p.salt" format="1">
  <advance width="569"/>
  <outline>
    <contour>
      <point x="162" y="88" type="curve"/>
      <point x="223" y="477" type="line"/>
      <point x="380" y="477" type="line" smooth="yes"/>
      <point x="455" y="477"/>
      <point x="484" y="428"/>
      <point x="484" y="344" type="curve" smooth="yes"/>
      <point x="484" y="200"/>
      <point x="430" y="65"/>
      <point x="314" y="65" type="curve" smooth="yes"/>
      <point x="258" y="65"/>
      <point x="219" y="72"/>
    </contour>
    <contour>
      <point x="28" y="-259" type="line"/>
      <point x="107" y="-259" type="line"/>
      <point x="153" y="27" type="line"/>
      <point x="200" y="5"/>
      <point x="276" y="-5"/>
      <point x="317" y="-5" type="curve" smooth="yes"/>
      <point x="508" y="-5"/>
      <point x="562" y="205"/>
      <point x="562" y="357" type="curve" smooth="yes"/>
      <point x="562" y="481"/>
      <point x="514" y="545"/>
      <point x="397" y="545" type="curve" smooth="yes"/>
      <point x="293" y="545"/>
      <point x="213" y="535"/>
      <point x="150" y="515" type="curve"/>
    </contour>
    <contour>
      <point x="383" y="650" type="move" name="top"/>
    </contour>
  </outline>
</glyph>
<glyph name="percent.smcp" format="1">
  <advance width="798"/>
  <note>
    GF Latin Plus glyph
  </note>
  <outline>
    <contour>
      <point x="524" y="110" type="curve" smooth="yes"/>
      <point x="535" y="186" type="line" smooth="yes"/>
      <point x="543" y="236"/>
      <point x="567" y="247"/>
      <point x="611" y="247" type="curve" smooth="yes"/>
      <point x="676" y="247" type="line" smooth="yes"/>
      <point x="717" y="247"/>
      <point x="733" y="236"/>
      <point x="733" y="206" type="curve" smooth="yes"/>
      <point x="733" y="200"/>
      <point x="733" y="194"/>
      <point x="731" y="186" type="curve" smooth="yes"/>
      <point x="720" y="110" type="line" smooth="yes"/>
      <point x="712" y="64"/>
      <point x="691" y="49"/>
      <point x="643" y="49" type="curve" smooth="yes"/>
      <point x="579" y="49" type="line" smooth="yes"/>
      <point x="539" y="49"/>
      <point x="522" y="59"/>
      <point x="522" y="90" type="curve" smooth="yes"/>
      <point x="522" y="96"/>
      <point x="522" y="102"/>
    </contour>
    <contour>
      <point x="473" y="100" type="line" smooth="yes"/>
      <point x="471" y="90"/>
      <point x="470" y="81"/>
      <point x="470" y="72" type="curve" smooth="yes"/>
      <point x="471" y="26"/>
      <point x="496" y="2"/>
      <point x="562" y="2" type="curve" smooth="yes"/>
      <point x="644" y="2" type="line" smooth="yes"/>
      <point x="725" y="2"/>
      <point x="757" y="36"/>
      <point x="767" y="100" type="curve" smooth="yes"/>
      <point x="782" y="195" type="line" smooth="yes"/>
      <point x="784" y="205"/>
      <point x="785" y="215"/>
      <point x="785" y="224" type="curve" smooth="yes"/>
      <point x="784" y="270"/>
      <point x="758" y="293"/>
      <point x="692" y="293" type="curve" smooth="yes"/>
      <point x="610" y="293" type="line" smooth="yes"/>
      <point x="529" y="293"/>
      <point x="498" y="260"/>
      <point x="488" y="195" type="curve" smooth="yes"/>
    </contour>
    <contour>
      <point x="190" y="0" type="line"/>
      <point x="244" y="0" type="line"/>
      <point x="688" y="557" type="line"/>
      <point x="637" y="557" type="line"/>
    </contour>
    <contour>
      <point x="155" y="373" type="curve" smooth="yes"/>
      <point x="167" y="449" type="line" smooth="yes"/>
      <point x="175" y="499"/>
      <point x="198" y="510"/>
      <point x="243" y="510" type="curve" smooth="yes"/>
      <point x="308" y="510" type="line" smooth="yes"/>
      <point x="349" y="510"/>
      <point x="364" y="499"/>
      <point x="365" y="470" type="curve" smooth="yes"/>
      <point x="365" y="464"/>
      <point x="364" y="457"/>
      <point x="363" y="449" type="curve" smooth="yes"/>
      <point x="351" y="373" type="line" smooth="yes"/>
      <point x="344" y="326"/>
      <point x="323" y="312"/>
      <point x="275" y="312" type="curve" smooth="yes"/>
      <point x="210" y="312" type="line" smooth="yes"/>
      <point x="171" y="312"/>
      <point x="154" y="322"/>
      <point x="154" y="352" type="curve" smooth="yes"/>
      <point x="154" y="359"/>
      <point x="154" y="366"/>
    </contour>
    <contour>
      <point x="105" y="364" type="line" smooth="yes"/>
      <point x="103" y="354"/>
      <point x="103" y="343"/>
      <point x="103" y="335" type="curve" smooth="yes"/>
      <point x="103" y="289"/>
      <point x="129" y="265"/>
      <point x="195" y="265" type="curve" smooth="yes"/>
      <point x="276" y="265" type="line" smooth="yes"/>
      <point x="357" y="265"/>
      <point x="389" y="299"/>
      <point x="399" y="364" type="curve" smooth="yes"/>
      <point x="414" y="458" type="line" smooth="yes"/>
      <point x="416" y="469"/>
      <point x="417" y="478"/>
      <point x="417" y="487" type="curve" smooth="yes"/>
      <point x="416" y="533"/>
      <point x="391" y="557"/>
      <point x="324" y="557" type="curve" smooth="yes"/>
      <point x="243" y="557" type="line" smooth="yes"/>
      <point x="161" y="557"/>
      <point x="130" y="523"/>
      <point x="120" y="458" type="curve" smooth="yes"/>
    </contour>
  </outline>
</glyph>
<glyph name="ruble.smcp" format="1">
  <advance width="515"/>
  <note>
    GF Latin Plus glyph
  </note>
  <outline>
    <contour>
      <point x="159" y="87" type="line"/>
      <point x="415" y="87" type="line"/>
      <point x="421" y="127" type="line"/>
      <point x="169" y="127" type="line"/>
    </contour>
    <contour>
      <point x="39" y="87" type="line"/>
      <point x="154" y="87" type="line"/>
      <point x="160" y="127" type="line"/>
      <point x="44" y="127" type="line"/>
    </contour>
    <contour>
      <point x="218" y="272" type="line"/>
      <point x="254" y="495" type="line"/>
      <point x="354" y="495" type="line" smooth="yes"/>
      <point x="417" y="495"/>
      <point x="446" y="476"/>
      <point x="446" y="423" type="curve" smooth="yes"/>
      <point x="446" y="351"/>
      <point x="405" y="272"/>
      <point x="319" y="272" type="curve" smooth="yes"/>
    </contour>
    <contour>
      <point x="103" y="0" type="line"/>
      <point x="176" y="0" type="line"/>
      <point x="210" y="214" type="line"/>
      <point x="214" y="212"/>
      <point x="314" y="210"/>
      <point x="326" y="210" type="curve" smooth="yes"/>
      <point x="460" y="210"/>
      <point x="521" y="325"/>
      <point x="520" y="429" type="curve" smooth="yes"/>
      <point x="519" y="536"/>
      <point x="453" y="560"/>
      <point x="380" y="560" type="curve" smooth="yes"/>
      <point x="192" y="560" type="line"/>
    </contour>
    <contour>
      <point x="62" y="233" type="line"/>
      <point x="174" y="233" type="line"/>
      <point x="181" y="272" type="line"/>
      <point x="68" y="272" type="line"/>
    </contour>
  </outline>
</glyph>
<glyph name="rupeeIndian.smcp" format="1">
  <advance width="515"/>
  <note>
    GF Latin Plus glyph
  </note>
  <outline>
    <contour>
      <point x="268" y="521" type="line"/>
      <point x="561" y="521" type="line"/>
      <point x="567" y="560" type="line"/>
      <point x="274" y="560" type="line"/>
    </contour>
    <contour>
      <point x="115" y="364" type="line"/>
      <point x="537" y="364" type="line"/>
      <point x="543" y="404" type="line"/>
      <point x="122" y="404" type="line"/>
    </contour>
    <contour>
      <point x="137" y="498" type="line"/>
      <point x="294" y="498" type="line" smooth="yes"/>
      <point x="332" y="498"/>
      <point x="363" y="483"/>
      <point x="364" y="415" type="curve" smooth="yes"/>
      <point x="365" y="325"/>
      <point x="306" y="267"/>
      <point x="248" y="267" type="curve" smooth="yes"/>
      <point x="100" y="267" type="line"/>
      <point x="91" y="211" type="line"/>
      <point x="130" y="211"/>
      <point x="194" y="209"/>
      <point x="224" y="209" type="curve"/>
      <point x="304" y="0" type="line"/>
      <point x="386" y="0" type="line"/>
      <point x="302" y="216" type="line"/>
      <point x="376" y="235"/>
      <point x="441" y="318"/>
      <point x="440" y="423" type="curve" smooth="yes"/>
      <point x="439" y="537"/>
      <point x="369" y="560"/>
      <point x="306" y="560" type="curve" smooth="yes"/>
      <point x="147" y="560" type="line"/>
    </contour>
  </outline>
</glyph>
<glyph name="seven.smcp" format="1">
  <advance width="464"/>
  <note>
    GF Latin Plus glyph
  </note>
  <outline>
    <contour>
      <point x="119" y="488" type="line"/>
      <point x="407" y="488" type="line"/>
      <point x="126" y="0" type="line"/>
      <point x="215" y="0" type="line"/>
      <point x="510" y="525" type="line"/>
      <point x="493" y="560" type="line"/>
      <point x="130" y="560" type="line"/>
    </contour>
  </outline>
</glyph>
<glyph name="three.oldstyle" format="1">
  <advance width="562"/>
  <outline>
    <contour>
      <point x="137" y="465" type="line"/>
      <point x="323" y="465" type="line" smooth="yes"/>
      <point x="411" y="465"/>
      <point x="452" y="432"/>
      <point x="452" y="374" type="curve" smooth="yes"/>
      <point x="452" y="367"/>
      <point x="451" y="359"/>
      <point x="451" y="351" type="curve" smooth="yes"/>
      <point x="443" y="302" type="line" smooth="yes"/>
      <point x="432" y="234"/>
      <point x="379" y="209"/>
      <point x="307" y="206" type="curve" smooth="yes"/>
      <point x="143" y="198" type="line"/>
      <point x="134" y="140" type="line"/>
      <point x="299" y="133" type="line" smooth="yes"/>
      <point x="354" y="130"/>
      <point x="411" y="109"/>
      <point x="411" y="46" type="curve" smooth="yes"/>
      <point x="411" y="40"/>
      <point x="410" y="34"/>
      <point x="409" y="27" type="curve" smooth="yes"/>
      <point x="402" y="-22" type="line" smooth="yes"/>
      <point x="387" y="-113"/>
      <point x="320" y="-134"/>
      <point x="235" y="-134" type="curve" smooth="yes"/>
      <point x="17" y="-134" type="line"/>
      <point x="7" y="-195" type="line"/>
      <point x="68" y="-203"/>
      <point x="152" y="-208"/>
      <point x="249" y="-208" type="curve" smooth="yes"/>
      <point x="377" y="-208"/>
      <point x="462" y="-147"/>
      <point x="480" y="-34" type="curve" smooth="yes"/>
      <point x="489" y="17" type="line" smooth="yes"/>
      <point x="490" y="28"/>
      <point x="491" y="38"/>
      <point x="491" y="48" type="curve" smooth="yes"/>
      <point x="491" y="126"/>
      <point x="431" y="160"/>
      <point x="394" y="169" type="curve"/>
      <point x="435" y="178"/>
      <point x="508" y="212"/>
      <point x="522" y="304" type="curve" smooth="yes"/>
      <point x="532" y="367" type="line" smooth="yes"/>
      <point x="534" y="379"/>
      <point x="535" y="391"/>
      <point x="535" y="402" type="curve" smooth="yes"/>
      <point x="535" y="491"/>
      <point x="474" y="540"/>
      <point x="360" y="540" type="curve" smooth="yes"/>
      <point x="272" y="540"/>
      <point x="201" y="533"/>
      <point x="146" y="526" type="curve"/>
    </contour>
  </outline>
</glyph>
<glyph name="three.tnum" format="1">
  <advance width="609"/>
  <outline>
    <contour>
      <point x="186" y="667" type="line"/>
      <point x="396" y="667" type="line" smooth="yes"/>
      <point x="483" y="667"/>
      <point x="526" y="634"/>
      <point x="526" y="576" type="curve" smooth="yes"/>
      <point x="526" y="569"/>
      <point x="525" y="561"/>
      <point x="524" y="553" type="curve" smooth="yes"/>
      <point x="516" y="504" type="line" smooth="yes"/>
      <point x="505" y="436"/>
      <point x="453" y="411"/>
      <point x="381" y="408" type="curve" smooth="yes"/>
      <point x="193" y="400" type="line"/>
      <point x="184" y="342" type="line"/>
      <point x="371" y="335" type="line" smooth="yes"/>
      <point x="427" y="333"/>
      <point x="484" y="312"/>
      <point x="484" y="248" type="curve" smooth="yes"/>
      <point x="484" y="242"/>
      <point x="484" y="236"/>
      <point x="482" y="229" type="curve" smooth="yes"/>
      <point x="475" y="180" type="line" smooth="yes"/>
      <point x="461" y="89"/>
      <point x="394" y="68"/>
      <point x="308" y="68" type="curve" smooth="yes"/>
      <point x="67" y="68" type="line"/>
      <point x="57" y="7" type="line"/>
      <point x="123" y="-1"/>
      <point x="216" y="-6"/>
      <point x="322" y="-6" type="curve" smooth="yes"/>
      <point x="451" y="-6"/>
      <point x="536" y="55"/>
      <point x="553" y="168" type="curve" smooth="yes"/>
      <point x="561" y="219" type="line" smooth="yes"/>
      <point x="564" y="230"/>
      <point x="565" y="240"/>
      <point x="565" y="250" type="curve" smooth="yes"/>
      <point x="565" y="328"/>
      <point x="504" y="362"/>
      <point x="468" y="371" type="curve"/>
      <point x="509" y="379"/>
      <point x="580" y="414"/>
      <point x="595" y="506" type="curve" smooth="yes"/>
      <point x="605" y="569" type="line" smooth="yes"/>
      <point x="607" y="581"/>
      <point x="608" y="593"/>
      <point x="608" y="604" type="curve" smooth="yes"/>
      <point x="608" y="688"/>
      <point x="553" y="742"/>
      <point x="438" y="742" type="curve" smooth="yes"/>
      <point x="339" y="742"/>
      <point x="261" y="736"/>
      <point x="196" y="728" type="curve"/>
    </contour>
  </outline>
</glyph>
<glyph name="w.salt" format="1">
  <advance width="825"/>
  <outline>
    <contour>
      <point x="100" y="534" type="line"/>
      <point x="178" y="0" type="line"/>
      <point x="264" y="0" type="line"/>
      <point x="447" y="334" type="line"/>
      <point x="527" y="0" type="line"/>
      <point x="614" y="0" type="line"/>
      <point x="860" y="534" type="line"/>
      <point x="779" y="534" type="line"/>
      <point x="579" y="74" type="line"/>
      <point x="502" y="408" type="line"/>
      <point x="562" y="534" type="line"/>
      <point x="481" y="534" type="line"/>
      <point x="240" y="74" type="line"/>
      <point x="182" y="534" type="line"/>
    </contour>
    <contour>
      <point x="516" y="650" type="move" name="top"/>
    </contour>
    <contour>
      <point x="389" y="-150" type="move" name="bottom"/>
    </contour>
  </outline>
</glyph>
<glyph name="x.salt" format="1">
  <advance width="554"/>
  <outline>
    <contour>
      <point x="447" y="0" type="line"/>
      <point x="533" y="0" type="line"/>
      <point x="424" y="218" type="line" smooth="yes"/>
      <point x="416" y="234"/>
      <point x="413" y="248"/>
      <point x="413" y="261" type="curve" smooth="yes"/>
      <point x="413" y="288"/>
      <point x="420" y="310"/>
      <point x="451" y="343" type="curve" smooth="yes"/>
      <point x="617" y="534" type="line"/>
      <point x="531" y="534" type="line"/>
      <point x="393" y="380" type="line" smooth="yes"/>
      <point x="352" y="334"/>
      <point x="335" y="290"/>
      <point x="335" y="248" type="curve" smooth="yes"/>
      <point x="335" y="227"/>
      <point x="341" y="205"/>
      <point x="352" y="182" type="curve" smooth="yes"/>
    </contour>
    <contour>
      <point x="22" y="0" type="line"/>
      <point x="107" y="0" type="line"/>
      <point x="260" y="182" type="line" smooth="yes"/>
      <point x="292" y="221"/>
      <point x="304" y="263"/>
      <point x="304" y="302" type="curve" smooth="yes"/>
      <point x="304" y="327"/>
      <point x="298" y="352"/>
      <point x="281" y="380" type="curve" smooth="yes"/>
      <point x="191" y="534" type="line"/>
      <point x="106" y="534" type="line"/>
      <point x="212" y="343" type="line" smooth="yes"/>
      <point x="223" y="324"/>
      <point x="228" y="307"/>
      <point x="228" y="292" type="curve" smooth="yes"/>
      <point x="228" y="270"/>
      <point x="222" y="246"/>
      <point x="199" y="218" type="curve" smooth="yes"/>
    </contour>
    <contour>
      <point x="381" y="650" type="move" name="top"/>
    </contour>
    <contour>
      <point x="254" y="-150" type="move" name="bottom"/>
    </contour>
  </outline>
</glyph>
